<?xml version="1.0" encoding="utf-8"?>
<!-- Generator: Adobe Illustrator 28.4.1, SVG Export Plug-In . SVG Version: 6.00 Build 0)  -->
<svg version="1.1" id="Layer_1" xmlns="http://www.w3.org/2000/svg" xmlns:xlink="http://www.w3.org/1999/xlink" x="0px" y="0px"
	 viewBox="0 0 170 43" style="enable-background:new 0 0 170 43;" xml:space="preserve">
<path d="M128.4-40.3c1.3-0.4,2.9-0.4,4.2-0.2c1,0.1,3.9,0.6,5.6,2.3c0.3,0.3,1.1,1.3,2.6,1.8c0.3,0.1,0.5,0.1,0.6,0.2l0.4,0.1
	c-0.3-0.6-0.6-1.2-0.9-1.7l0,0c0,0,0,0,0,0c-2.2-4.3-4.1-7.9-6.4-12.4c-0.1,0.1-0.2,0.2-0.3,0.3c0.1,0.2,0.2,0.4,0.3,0.7
	c0.6,1.6,1.3,3.4,0.6,4.5c-1,1.7-4.8,1.4-6.3,0.5c-1.3-0.8-0.6-2.4,0-3.4c0.5-0.8,1.1-1.6,1.8-2.3c0.3-0.3,0.6-0.6,0.9-0.9
	c1.2-1.1,2.9-1.5,4.3-0.5c1.2,0.8,2.1,2,2.8,3.2c0.5,0.8,2,3.5,1.6,5.8c-0.1,0.4-0.3,1.7,0.2,3.1c0.1,0.3,0.2,0.5,0.3,0.6l0.2,0.4
	c0.3-0.6,0.5-1.2,0.8-1.8l0,0c0,0,0,0,0,0c2-4.4,3.7-8.1,5.7-12.7c-0.1,0-0.3,0-0.4,0c-0.1,0.2-0.2,0.4-0.4,0.7
	c-0.9,1.5-1.8,3.2-3.1,3.3c-2,0.2-4.1-2.9-4.3-4.6c-0.2-1.5,1.5-2,2.7-2.1c1-0.1,1.9-0.1,2.9,0c0.4,0,0.8,0.1,1.3,0.2
	c1.6,0.3,3,1.4,3.1,3.1c0.1,1.4-0.3,2.9-0.8,4.2c-0.4,0.9-1.5,3.7-3.5,4.9c-0.4,0.2-1.5,0.8-2.3,2.1c-0.1,0.2-0.2,0.4-0.3,0.6
	l-0.2,0.4c0.6-0.2,1.3-0.3,1.9-0.5l0,0c0,0,0,0,0,0c4.6-1.2,8.7-2.2,13.5-3.5c-0.1-0.1-0.2-0.2-0.2-0.3c-0.2,0-0.5,0.1-0.8,0.1
	c-1.7,0.3-3.6,0.5-4.5-0.4c-1.4-1.4-0.3-5,0.9-6.2c1.1-1.1,2.5-0.1,3.3,0.8c0.7,0.7,1.3,1.5,1.8,2.3c0.2,0.3,0.4,0.7,0.6,1.1
	c0.8,1.5,0.8,3.2-0.5,4.3c-1,0.9-2.4,1.6-3.8,2c-0.9,0.3-3.8,1.2-6,0.3c-0.4-0.2-1.6-0.7-3.1-0.5c-0.3,0-0.5,0.1-0.6,0.1l-0.4,0.1
	c0.5,0.4,1.1,0.8,1.6,1.2l0,0c0,0,0,0,0,0c3.8,2.9,7.1,5.4,11.1,8.4c0-0.1,0.1-0.3,0.1-0.4c-0.2-0.1-0.4-0.3-0.6-0.5
	c-1.3-1.2-2.7-2.5-2.5-3.8c0.2-2,3.8-3.4,5.4-3.2c1.5,0.2,1.6,1.9,1.5,3.1c-0.1,1-0.4,1.9-0.7,2.8c-0.1,0.4-0.3,0.8-0.4,1.2
	c-0.7,1.5-2,2.6-3.7,2.3c-1.4-0.2-2.7-0.9-3.9-1.7c-0.8-0.5-3.3-2.3-4-4.5c-0.1-0.4-0.5-1.7-1.5-2.7c-0.2-0.2-0.4-0.3-0.5-0.4
	l-0.3-0.2c0,0.7,0,1.3,0.1,2l0,0c0,0,0,0,0,0c0.1,4.8,0.2,8.9,0.4,14c0.1-0.1,0.3-0.1,0.4-0.2c0-0.2,0-0.5,0-0.8
	c0.1-1.7,0.3-3.6,1.4-4.3c1.7-1.1,5,0.8,5.9,2.3c0.8,1.3-0.5,2.4-1.5,3.1c-0.8,0.5-1.7,0.9-2.6,1.2c-0.4,0.1-0.8,0.3-1.2,0.4
	c-1.6,0.4-3.3,0.1-4.1-1.4c-0.7-1.2-1-2.7-1.1-4.1c-0.1-1-0.3-4,1-5.9c0.2-0.4,1-1.4,1.2-2.9c0-0.3,0-0.5,0-0.7l0-0.4
	c-0.5,0.4-1,0.9-1.5,1.3l0,0c0,0,0,0,0,0c-3.7,3.1-6.8,5.8-10.7,9c0.1,0.1,0.2,0.1,0.4,0.2c0.2-0.1,0.4-0.3,0.6-0.5
	c1.4-1,3-2.1,4.2-1.6c1.9,0.6,2.5,4.4,1.9,6c-0.5,1.5-2.2,1.2-3.3,0.7c-0.9-0.3-1.8-0.8-2.6-1.3c-0.3-0.2-0.7-0.4-1.1-0.7
	c-1.3-1-2.1-2.5-1.4-4.1c0.5-1.3,1.5-2.5,2.5-3.4c0.7-0.7,2.9-2.7,5.3-2.9c0.4,0,1.7-0.1,3-0.9c0.2-0.2,0.4-0.3,0.5-0.4l0.3-0.3
	c-0.7-0.1-1.3-0.3-1.9-0.4l0,0c0,0,0,0,0,0c-4.7-0.9-8.8-1.8-13.7-2.7c0,0.1,0,0.3,0.1,0.4c0.2,0,0.5,0.1,0.8,0.2
	c1.6,0.5,3.5,1.1,3.9,2.3c0.7,1.9-1.9,4.7-3.5,5.2c-1.5,0.5-2.3-1-2.7-2.1c-0.3-0.9-0.5-1.9-0.6-2.8c0-0.4-0.1-0.8-0.1-1.3
	C126-38.3,126.7-39.8,128.4-40.3z M145.7-37.3l0-1.4c0-0.2-0.1-0.4-0.3-0.5l-1.1-0.9c-0.2-0.1-0.4-0.2-0.6-0.1l-1.4,0.4
	c-0.2,0.1-0.4,0.2-0.5,0.4l-0.6,1.3c-0.1,0.2-0.1,0.4,0,0.6l0.7,1.3c0.1,0.2,0.3,0.3,0.5,0.4l1.4,0.3c0.2,0,0.4,0,0.6-0.1l1.1-0.9
	C145.6-36.9,145.7-37.1,145.7-37.3z"/>
<path d="M4.3,19.5c1.3-0.4,2.9-0.4,4.2-0.2c1,0.1,3.9,0.6,5.6,2.3c0.3,0.3,1.1,1.3,2.6,1.8c0.3,0.1,0.5,0.1,0.6,0.2l0.4,0.1
	c-0.3-0.6-0.6-1.2-0.9-1.7l0,0c0,0,0,0,0,0c-2.2-4.3-4.1-7.9-6.4-12.4c-0.1,0.1-0.2,0.2-0.3,0.3c0.1,0.2,0.2,0.4,0.3,0.7
	c0.6,1.6,1.3,3.4,0.6,4.5c-1,1.7-4.8,1.4-6.3,0.5c-1.3-0.8-0.6-2.4,0-3.4c0.5-0.8,1.1-1.6,1.8-2.3C7,9.6,7.3,9.3,7.6,9
	c1.2-1.1,2.9-1.5,4.3-0.5c1.2,0.8,2.1,2,2.8,3.2c0.5,0.8,2,3.5,1.6,5.8c-0.1,0.4-0.3,1.7,0.2,3.1c0.1,0.3,0.2,0.5,0.3,0.6l0.2,0.4
	c0.3-0.6,0.5-1.2,0.8-1.8l0,0c0,0,0,0,0,0c2-4.4,3.7-8.1,5.7-12.7c-0.1,0-0.3,0-0.4,0c-0.1,0.2-0.2,0.4-0.4,0.7
	c-0.9,1.5-1.8,3.2-3.1,3.3c-2,0.2-4.1-2.9-4.3-4.6c-0.2-1.5,1.5-2,2.7-2.1c1-0.1,1.9-0.1,2.9,0c0.4,0,0.8,0.1,1.3,0.2
	c1.6,0.3,3,1.4,3.1,3.1c0.1,1.4-0.3,2.9-0.8,4.2c-0.4,0.9-1.5,3.7-3.5,4.9c-0.4,0.2-1.5,0.8-2.3,2.1c-0.1,0.2-0.2,0.4-0.3,0.6
	l-0.2,0.4c0.6-0.2,1.3-0.3,1.9-0.5l0,0c0,0,0,0,0,0c4.6-1.2,8.7-2.2,13.5-3.5c-0.1-0.1-0.2-0.2-0.2-0.3c-0.2,0-0.5,0.1-0.8,0.1
	c-1.7,0.3-3.6,0.5-4.5-0.4c-1.4-1.4-0.3-5,0.9-6.2c1.1-1.1,2.5-0.1,3.3,0.8c0.7,0.7,1.3,1.5,1.8,2.3c0.2,0.3,0.4,0.7,0.6,1.1
	c0.8,1.5,0.8,3.2-0.5,4.3c-1,0.9-2.4,1.6-3.8,2c-0.9,0.3-3.8,1.2-6,0.3c-0.4-0.2-1.6-0.7-3.1-0.5c-0.3,0-0.5,0.1-0.6,0.1l-0.4,0.1
	c0.5,0.4,1.1,0.8,1.6,1.2l0,0c0,0,0,0,0,0C25.7,23.5,29,26,33.1,29c0-0.1,0.1-0.3,0.1-0.4c-0.2-0.1-0.4-0.3-0.6-0.5
	c-1.3-1.2-2.7-2.5-2.5-3.8c0.2-2,3.8-3.4,5.4-3.2c1.5,0.2,1.6,1.9,1.5,3.1c-0.1,1-0.4,1.9-0.7,2.8c-0.1,0.4-0.3,0.8-0.4,1.2
	c-0.7,1.5-2,2.6-3.7,2.3c-1.4-0.2-2.7-0.9-3.9-1.7c-0.8-0.5-3.3-2.3-4-4.5c-0.1-0.4-0.5-1.7-1.5-2.7c-0.2-0.2-0.4-0.3-0.5-0.4
	L21.9,21c0,0.7,0,1.3,0.1,2l0,0c0,0,0,0,0,0c0.1,4.8,0.2,8.9,0.4,14c0.1-0.1,0.3-0.1,0.4-0.2c0-0.2,0-0.5,0-0.8
	c0.1-1.7,0.3-3.6,1.4-4.3c1.7-1.1,5,0.8,5.9,2.3c0.8,1.3-0.5,2.4-1.5,3.1c-0.8,0.5-1.7,0.9-2.6,1.2c-0.4,0.1-0.8,0.3-1.2,0.4
	c-1.6,0.4-3.3,0.1-4.1-1.4c-0.7-1.2-1-2.7-1.1-4.1c-0.1-1-0.3-4,1-5.9c0.2-0.4,1-1.4,1.2-2.9c0-0.3,0-0.5,0-0.7l0-0.4
	c-0.5,0.4-1,0.9-1.5,1.3l0,0c0,0,0,0,0,0c-3.7,3.1-6.8,5.8-10.7,9c0.1,0.1,0.2,0.1,0.4,0.2c0.2-0.1,0.4-0.3,0.6-0.5
	c1.4-1,3-2.1,4.2-1.6c1.9,0.6,2.5,4.4,1.9,6c-0.5,1.5-2.2,1.2-3.3,0.7c-0.9-0.3-1.8-0.8-2.6-1.3c-0.3-0.2-0.7-0.4-1.1-0.7
	c-1.3-1-2.1-2.5-1.4-4.1c0.5-1.3,1.5-2.5,2.5-3.4c0.7-0.7,2.9-2.7,5.3-2.9c0.4,0,1.7-0.1,3-0.9c0.2-0.2,0.4-0.3,0.5-0.4l0.3-0.3
	c-0.7-0.1-1.3-0.3-1.9-0.4l0,0c0,0,0,0,0,0c-4.7-0.9-8.8-1.8-13.7-2.7c0,0.1,0,0.3,0.1,0.4c0.2,0,0.5,0.1,0.8,0.2
	c1.6,0.5,3.5,1.1,3.9,2.3C9.6,26,7,28.8,5.4,29.4c-1.5,0.5-2.3-1-2.7-2.1c-0.3-0.9-0.5-1.9-0.6-2.8C2.1,24,2,23.6,2,23.2
	C2,21.5,2.7,20,4.3,19.5z M21.7,22.5l0-1.4c0-0.2-0.1-0.4-0.3-0.5l-1.1-0.9c-0.2-0.1-0.4-0.2-0.6-0.1l-1.4,0.4
	c-0.2,0.1-0.4,0.2-0.5,0.4l-0.6,1.3c-0.1,0.2-0.1,0.4,0,0.6l0.7,1.3c0.1,0.2,0.3,0.3,0.5,0.4l1.4,0.3c0.2,0,0.4,0,0.6-0.1l1.1-0.9
	C21.6,22.9,21.7,22.7,21.7,22.5z"/>
<g>
	<g>
		<g>
			<path d="M73.4-20.6c5.6,0.1,9.7,3.8,15.2,0.1c2.4-1.6,3.3-3.9,3.6-4.7c0.7-1.8,0.8-3.5,0.7-4.8c-0.1-1.3,0-2.6,0.4-3.9l0.1-0.3
				c0,0.9,0,2.4,0.7,3.1c4.1,3.7,10.5-2.4,11.6-5.4c0.7,0.5,1.5,1,2.4,1.5c2.2,1.1,4.8,1.8,7.3,1.9c0.5,0,1-0.2,1.5-0.7
				c0.6-0.6,0.7-1.3,0.8-2c0.4-3.2-0.4-5.5-0.4-5.5c-0.5-1.4-1.8-5.4-4.3-5.6c-1.4-0.1-2.7,0.7-3.6,1.6c-1,0.9-1.8,1.9-2.6,3
				c-0.3,0.4-0.5,0.8-0.8,1.2c-0.3-0.2-0.7-0.4-1-0.6c-0.2,0.4-0.4,0.8-0.5,1.4c-0.2,0.8-0.2,1.5-0.2,2c0,0.4-0.8,1.2-1,1.5
				c-2.1,2.4-6,2.8-8.9,1.3c-0.6-0.3-1.3-0.8-1.8-1.3c-0.5-0.7-1.8-3.9-3-1.9c-0.3,0.5-1.3,2.3-1.6,2.8c-0.3,0.5-0.2,1.2,0.3,1.5
				c0.5,0.4,0.9,0.6,1.3,0.8c0.9,0.5,1.5,0.9,1.7,1.7c0,0.2,0.1,0.3,0.1,0.4c0,1.5-2.4,3.5-3.4,4.5c-2.9,2.7-6.5,4.7-10.4,5.3
				c-1.5,0.2-2.4,0.3-4,0.3h-1.6v0.8H73.4z"/>
			<path d="M85.1-33.9c0,1.3-0.1,2.2-0.1,2.9c-0.2,1.3-0.5,2.4-0.7,3.3c-0.2,0.9-0.4,1.4-0.5,1.3c0-0.1-0.1-0.4-0.2-0.9
				c-1-7-1.8-14-2.6-21c0-0.3-0.1-0.6-0.1-0.9c0,0,0,0,0-0.1c0-1,0.7-1.9,1.4-2.6c0.4-0.5,1.5-1.8,2.2-1.8c0,0,0,0,0,0c0,0,0,0,0,0
				c0,0,0,0,0,0c0,0.1,0.1,0.2,0.1,0.5C84.6-46.7,85.1-40.3,85.1-33.9z"/>
			<path d="M79.3-36.7c-0.1,1.6-0.7,3.3-1.5,4.6c-0.5,0.7-1.3,1.9-2.2,2.1c-0.9,0.2-1.9-0.4-2.7-0.7c-0.8-0.3-1.6-0.7-2.4-1.2
				c-0.9-0.6-1.3-0.9-1.5-1.5c-0.2-0.7,0-1.4,0.2-1.7c-2.3,3.3-5.2,5.4-9.3,5.1c-0.4,0-0.8-0.1-1.1-0.3c-0.5-0.3-0.7-0.8-0.8-1.4
				c-0.1-0.5,0.1-1.1,0.2-1.6c-0.5,0.6-1.2,1.4-2.3,2.1c-1.7,1.1-3.3,1.4-4.2,1.5c0-0.4,0-1.1-0.4-1.9c-0.3-0.6-0.7-1-1-1.3
				c0,0.1,0.1,0.5,0.1,0.7c0,1.7-0.2,3.4-0.9,5c-0.9,1.7-2.5,2.6-4.4,3c-1.2,0.3-2.4,0.3-3.6,0.4c-3.4,0.1-6.7-0.1-10-1
				c-4-1.2-7.9-2.6-12.1-3.3c-1.3-0.2-2.6-0.4-3.9-0.5c-0.7-0.1-1.3-0.1-2-0.1l-1.9-0.1l0-0.8c11.8,0.2,23.7-0.2,35.5,0v-0.4
				c0-0.2-0.2-0.4-0.4-0.4c-1.4,0-2.8,0-4.2,0c-0.6,0-1.3-0.1-1.9-0.2c-2-0.5-2.7-1.5-2.9-1.8c-2-3,1.2-8.2,4.7-10.1
				c3.9-2.2,6.1,3.3,7,6.2c0.2,0.6,0.3,1.2,0.5,1.8c0,0.1,0.1,0.2,0.1,0.3c0.1,0.1,0.3,0.2,0.5,0.2c3.9,0.2,7.6-1.6,9.9-4.7
				c0.2-0.3,0.4-0.4,0.5-0.4c0.2,0,0.3,0.1,0.3,0.4c0,0.2-0.2,0.6-0.4,1.2c-0.3,0.5-0.6,1.1-0.9,1.7c-0.3,0.6-0.8,1.3-1.3,2.1
				c2,0.1,3.6-0.3,4.5-0.6c4.3-1.4,6.6-4.6,6.9-5.1c0.2-0.3,0.4-0.7,0.6-1c0.2-0.3,0.3-0.4,0.3-0.4c0.1,0,0.2,0.1,0.2,0.4
				c0,0.3,0,0.5,0,0.7c0,0.1-0.1,0.5-0.2,1c-0.1,0.5-0.4,1.4-0.8,2.6c0.2,0.3,0.5,0.6,1,1c0.5,0.3,1,0.6,1.6,0.8
				c0.6,0.2,1.2,0.4,1.8,0.6c0.6,0.2,1.1,0.3,1.5,0.3c-0.4-2.5-0.8-5-1.1-7.4c-0.1-0.3,0.6-1,0.8-1.2c0.4-0.5,0.8-1.1,1.3-1.6
				c0.1-0.1,0.2-0.2,0.3-0.3c0.1-0.1,0.2-0.1,0.3-0.2c0,0,0.1,0,0.1,0c0.5-0.2,1.3,1.7,1.3,1.9C79.2-40.7,79.3-38.7,79.3-36.7z"/>
			<g>
				<path d="M34.8-36c0.6-1.8,1.6-3.4,2.9-4.8c-0.2,0.2-3.8-3.1-4-2.8c-1.4,1.4-2.3,2.9-2.9,4.8c0,0.1,1.8,1.3,2,1.4
					C33-37.3,34.9-36.1,34.8-36L34.8-36z"/>
			</g>
			<g>
				<path d="M29.8-35.9c0.6-1.8,1.6-3.4,2.9-4.8c-0.2,0.2-3.8-3.1-4-2.8c-1.4,1.4-2.3,2.9-2.9,4.8c0,0.1,1.8,1.3,2,1.4
					C28-37.1,29.8-36,29.8-35.9L29.8-35.9z"/>
			</g>
			<g>
				<path d="M12.2-40.4c-0.3-0.3-0.5-0.7-0.5-1.2c0-0.5,0.2-0.9,0.5-1.2c0.3-0.3,0.7-0.5,1.2-0.5s0.9,0.2,1.2,0.5
					c0.3,0.3,0.5,0.7,0.5,1.2c0,0.5-0.2,0.9-0.5,1.2c-0.3,0.3-0.7,0.5-1.2,0.5S12.5-40.1,12.2-40.4z M14.5-40.6
					c0.3-0.3,0.5-0.7,0.5-1.1c0-0.4-0.2-0.8-0.5-1.1c-0.3-0.3-0.7-0.5-1.1-0.5c-0.4,0-0.8,0.2-1.1,0.5c-0.3,0.3-0.5,0.7-0.5,1.1
					c0,0.4,0.2,0.8,0.5,1.1c0.3,0.3,0.7,0.5,1.1,0.5C13.8-40.1,14.2-40.3,14.5-40.6z M13.9-40.8c-0.1-0.1-0.2-0.2-0.2-0.3
					c-0.1-0.2-0.1-0.3-0.1-0.3c0-0.1-0.1-0.2-0.2-0.2h-0.4v0.9l-0.1,0v-1.8h0.7c0.2,0,0.4,0.1,0.6,0.3c0,0.1,0.1,0.1,0.1,0.2
					c0,0.1,0,0.2-0.1,0.2c0,0.1-0.1,0.1-0.2,0.2c-0.1,0.1-0.2,0.1-0.3,0.1c0.1,0.1,0.3,0.3,0.4,0.5c0,0.1,0,0.1,0.1,0.2
					c0,0.1,0.1,0.1,0.2,0.1c0,0,0.1,0,0.1,0l0,0c0,0,0,0,0,0c0,0,0,0,0,0c0,0,0,0-0.1,0C14-40.7,13.9-40.8,13.9-40.8z M13.6-41.7
					c0.2-0.1,0.3-0.2,0.3-0.4c0-0.2-0.1-0.3-0.2-0.4c0,0-0.1,0-0.1,0c0,0-0.3,0-0.6,0v0.9l0.1,0h0.3C13.5-41.7,13.6-41.7,13.6-41.7z
					"/>
			</g>
			<path d="M67.5-26.5c-4.9,0.9-9.8,1.9-14.6,2.8c0.2,0.5,0.4,0.9,0.8,1c0.4,0.2,0.9,0.1,1.1,0c1-0.3,8.8-2.4,19.6-5.3
				C72-27.5,69.7-27,67.5-26.5z"/>
			<path d="M103.8-49.1c-4.8,1.2-9.7,2.3-14.5,3.5c0.2,0.5,0.5,0.8,0.9,1c0.4,0.2,0.9,0.1,1.1,0c1-0.3,8.7-2.8,19.3-6.2
				C108.3-50.2,106-49.7,103.8-49.1z"/>
		</g>
	</g>
</g>
<g>
	<path d="M58.6,13.5L52.6,28l0.4,1h-2l-6.4-15.6V29H43l0-16.5h3.3l6.1,15l6.1-15l1.9,0v13.1l0,3.4l-1.9,0V13.5z"/>
	<path d="M77.1,29l-1-2.2l-1.7-4h-7.2l-1.8,4.5L64.8,29h-0.4l0.8-2.2l5.5-13.4l-0.4-1h3.3L79,25.9l1.3,3L79.1,29H77.1z M70.9,14
		l-3.4,8.4h6.8L70.9,14z"/>
	<path d="M112.9,29l-1-2.2l-1.7-4h-7.2l-1.8,4.5l-0.7,1.8h-0.4l0.8-2.2l5.5-13.4l-0.4-1h3.3l5.5,13.4l1.3,3V29H112.9z M106.8,14
		l-3.4,8.4h6.8L106.8,14z"/>
	<path d="M119.2,27.1c-0.8-0.8-1.4-1.8-1.6-3.1h1.9c-0.1,0.3-0.1,0.5-0.1,0.8c0,0.6,0.2,1.1,0.5,1.7c0.5,0.8,1.3,1.3,2.2,1.7
		c0.9,0.4,1.9,0.6,2.9,0.6c0.7,0,1.3-0.1,1.9-0.3c0.6-0.2,1.3-0.4,1.8-0.9c0.6-0.5,0.8-1.3,0.8-2.1c0-0.7-0.2-1.3-0.7-1.7
		c-0.4-0.4-0.9-0.6-1.4-0.8c-2.3-0.9-5-0.9-7.3-2c-1.4-0.7-2.4-1.9-2.4-3.5c0-2.3,2.1-3.9,4.1-4.5c0.9-0.3,1.9-0.4,2.9-0.4
		c0.6,0,1.1,0,1.6,0.1c1,0.1,1.9,0.5,2.8,1c0.8,0.6,1.4,1.3,1.8,2.2l-0.7,0.9c-0.5-1.2-1-2-1.4-2.5c-1-1-2.3-1.5-4-1.5
		c-1.6,0-2.9,0.5-3.9,1.4c-0.6,0.6-0.9,1.3-0.9,2c0,0.9,0.3,1.5,0.9,1.9c0.6,0.4,1.4,0.8,2.3,1c0.7,0.2,1.7,0.4,3,0.7
		c2.6,0.4,4.3,1.3,5.1,2.7c0.3,0.5,0.4,1,0.4,1.6c0,0.4,0,0.8-0.1,1.2c-0.3,1.2-1,2-2.1,2.6c-1.2,0.7-2.7,1-4.4,1
		C122.6,29,120.6,28.4,119.2,27.1z"/>
	<path d="M134.8,29l0-16.5l10.2,0l0,0.4l-8.3,0v7.7h7.4l0,1.6h-7.4v6.5l8.4,0V29H134.8z"/>
	<path d="M156.8,29.1c-2.2-0.1-4.1-0.8-5.7-2.2c-1.4-1.2-2.3-2.8-2.6-4.9c-0.1-0.4-0.1-0.7-0.1-1.1c0-0.4,0-0.7,0.1-1
		c0.3-2.3,1.3-4,2.8-5.2c1.7-1.4,3.7-2,6-2c2.3,0,4.3,0.7,6,2c1.7,1.4,2.7,3.4,2.7,6.1c-0.1,2.6-0.9,4.6-2.5,6
		c-1.6,1.4-3.5,2.1-5.7,2.2H156.8z M161.5,26.9c1.3-1.3,2-3.3,2.1-6c-0.1-2.6-0.7-4.6-2-6c-1.3-1.3-2.7-2-4.4-2
		c-1.7,0-3.1,0.7-4.4,2c-1.3,1.3-1.9,3.3-2,6c0.1,2.5,0.7,4.5,1.9,5.8c1.2,1.3,2.7,2,4.5,2.1C158.8,28.9,160.3,28.2,161.5,26.9z"/>
	<path d="M95.8,27c-1-1.5-1.9-2.8-2.8-3.8c-0.7-0.8-1.5-1.4-2.4-1.7l0.5,0c1.1-0.1,1.9-0.4,2.5-0.7c0.6-0.4,1.1-0.9,1.5-1.7
		c0.4-0.6,0.6-1.3,0.6-2c0-0.7-0.2-1.4-0.6-2c-1.1-1.6-2.7-2.4-4.8-2.4c-0.2,0-2.6,0-7.3,0l0,16.4v0.2h1.9v-7.7h1c0.9,0,0.6,0,1.6,0
		c0.4,0,0.8,0.1,1.2,0.4c0.4,0.3,0.7,0.6,1,1c0.8,0.9,1.5,2.1,2.3,3.4c0.6,1,1.1,1.8,1.7,2.6h3.6C96.7,28.4,96.2,27.7,95.8,27z
		 M87.9,21.1h-2.4l-0.7,0V13H88c0.2,0,0.3,0,0.5,0c0.9,0,1.6,0.1,1.9,0.2c1,0.5,1.6,1.2,1.8,1.9c0.2,0.8,0.3,1.4,0.3,1.9
		c0,0.6-0.1,1.3-0.4,1.9C91.8,20,91,20.7,89.9,21C89.5,21.1,88.8,21.1,87.9,21.1z"/>
	<path d="M158.7,25.7c0.4,0,0.9,0.2,1.3,0.3c0.5,0.2,0.9,0.4,1.4,0.6c1,0.5,1.7,1.2,2.5,1.9c0.5,0.4,1,0.8,1.6,1.1
		c0.6,0.3,1.3,0.4,1.9,0.5c0.7,0,1.4,0,2.1,0c0,0.1,0,0.2,0,0.4c-0.1,0-2.4,0-2.5,0c-0.9,0-1.8,0.1-2.7-0.1
		c-1.1-0.2-2.1-0.7-2.9-1.4c-0.9-0.7-1.5-1.5-2.3-2.3c-0.4-0.4-0.9-0.7-1.5-1H158.7z"/>
</g>
</svg>
