<?xml version="1.0" encoding="utf-8"?>
<!-- Generator: Adobe Illustrator 28.4.1, SVG Export Plug-In . SVG Version: 6.00 Build 0)  -->
<svg version="1.1" id="Layer_1" xmlns="http://www.w3.org/2000/svg" xmlns:xlink="http://www.w3.org/1999/xlink" x="0px" y="0px"
	 viewBox="0 0 1080 1080" style="enable-background:new 0 0 1080 1080;" xml:space="preserve">
<style type="text/css">
	.st0{fill:none;stroke:#ED1C24;stroke-width:4.9344;stroke-miterlimit:10;}
	.st1{fill:none;stroke:#ED1C24;stroke-width:8.4758;stroke-miterlimit:10;}
	.st2{fill:none;stroke:#ED1C24;stroke-width:5.1123;stroke-miterlimit:10;}
</style>
<g>
	<g>
		<g>
			<path d="M613.7,690.1c47.5,0.6,83.4,32.1,129.8,0.9c20.5-13.8,28.3-33,31.1-40.2c6.1-15.7,6.8-30.2,5.9-40.9
				c-0.9-11.1,0-22.4,3.3-33.1l0.8-2.7c-0.2,7.7,0.2,20.8,6.4,26.4c34.8,31.4,89.9-20.9,99.2-46.3c6.1,4.3,13.1,8.5,21,12.6
				c18.7,9.5,41.2,15.4,62.5,16.5c4.3,0.2,8.6-1.9,13-6.4c5-5.1,6.4-11.5,7.1-17.3c3.4-27.6-3.1-47-3.1-47
				c-4.1-12-15.2-46.6-37.2-47.8c-11.8-0.6-22.7,6.1-31.2,13.8c-8.3,7.5-15.8,16.6-22.1,25.9c-2.4,3.4-4.7,6.9-7,10.3
				c-2.9-1.7-5.7-3.4-8.6-5.1c-1.5,3.1-3.2,7.1-4.4,11.9c-1.7,6.8-2,12.8-1.8,17.2c0.1,3.4-6.8,10.2-9,12.6
				c-18.4,20.4-51.2,24.1-75.9,11.4c-5.6-2.9-11.4-6.6-15.3-11.5c-4.5-5.8-15.4-33.2-25.7-16.4c-2.8,4.6-11.2,19.4-14,24
				c-2.7,4.4-1.3,10.1,3,12.9c4.6,3,8.1,5.2,10.7,6.9c7.3,4.7,12.7,8.1,14.3,14.4c0.4,1.5,0.4,2.8,0.5,3.6
				c0.1,12.7-20.6,30.2-29.2,38.1c-24.7,22.9-55.6,40.4-89.2,45.6c-13.2,2-20.5,2.5-34,2.6h-13.8v7.1H613.7z"/>
			<path d="M713.6,576c-0.2,10.8-0.5,18.9-0.9,24.4c-1.9,11-3.9,20.5-5.9,28.5c-2,8-3.4,11.6-4.1,10.9c-0.4-0.8-0.9-3.3-1.5-7.4
				c-8.5-59.8-15.6-119.9-22.3-179.9c-0.3-2.6-0.6-5.2-0.9-7.8c0-0.1,0-0.3,0-0.4c0-8.7,6.4-16.4,12-22.4
				c3.6-3.9,12.8-15.2,18.6-15.2c0,0,0.1,0,0.2,0c0.1,0.1,0.2,0.2,0.4,0.4c0.1,0,0.1,0.1,0.1,0.2c0.3,0.7,0.4,2.1,0.4,4
				C709.8,466.3,713.6,521.2,713.6,576z"/>
			<path d="M664.1,552.1c-1,14-5.7,27.8-13,39.8c-3.9,6.3-11.1,15.9-18.9,17.7c-7.4,1.7-16.2-3.5-23-6c-7.2-2.7-14.1-6.2-20.6-10.3
				c-7.6-4.9-11.4-7.5-13.2-12.6c-2.1-6.1,0.1-12.1,1.5-15c-19.5,28.7-44.3,45.8-79.9,43.4c-3.2-0.2-6.5-0.6-9.2-2.2
				c-4.1-2.4-6.2-7.2-6.7-11.9c-0.5-4.7,0.5-9.4,1.5-14c-4,5.1-10.3,11.9-19.3,17.8c-14.1,9.3-27.9,12-35.7,12.9
				c0.1-3.3-0.1-9.3-3.1-15.9c-2.3-5-6-8.8-8.2-10.9c0.3,1.1,0.7,4,0.7,6c0,14.3-1.5,29.5-8,42.5c-7.4,14.7-21.8,22.3-37.4,25.7
				c-10.2,2.2-20.6,2.6-31,3.1c-29.3,1.2-57.1-0.5-85.5-8.9c-34.4-10.2-67.6-22.5-103.2-28c-11.1-1.7-22.3-3.1-33.5-4.3
				c-5.6-0.6-11.2-0.9-16.9-1.1l-16.1-0.5l0.1-6.9c101.3,1.8,202.7-1.8,304,0v-3.6c0-1.8-1.5-3.3-3.3-3.4c-11.7,0-24.1,0-35.7,0
				c-5.5,0-11-0.6-16.3-1.9c-17-4.3-23.4-13-25.2-15.8c-16.7-25.4,10-69.8,39.9-86.3c33.5-18.5,52.3,28.4,59.9,52.8
				c1.6,5.1,2.9,10.3,4.3,15.6c0.2,0.8,0.4,1.7,1,2.4c1,1.1,2.6,1.4,4.1,1.4c33.6,2.1,65-13.4,84.6-40.4c1.7-2.3,3.1-3.4,4.3-3.3
				c2,0.1,2.9,1.1,2.8,3.1c-0.1,2-1.3,5.2-3.5,9.9c-2.3,4.1-4.7,9-7.6,14.6c-2.9,5.5-6.7,11.4-11.4,17.8c17.1,0.5,30.4-2.8,38.6-5.4
				c36.5-11.8,56.4-39.1,58.6-43.9c1.4-3,3.2-5.7,5-8.5c1.5-2.5,2.5-3.7,2.9-3.7c1.1,0.1,1.8,1.2,2.1,3.4c0.3,2.2,0.4,4.1,0.3,5.6
				c-0.1,1.2-0.5,3.9-1.3,8.2c-0.9,4.3-3.1,11.6-6.9,22c1.4,2.9,4.2,5.5,8.4,8.2c4.2,2.6,8.8,4.9,13.7,7c5,2.1,10.1,3.8,15,5.1
				c5.1,1.3,9.3,2.2,12.8,2.8c-3.3-21.2-6.5-42.4-9.8-63.7c-0.4-3,4.9-8.1,6.5-10.3c3.6-4.6,7.2-9,10.8-13.5
				c0.7-0.9,1.4-1.8,2.2-2.6c1-1,1.5-0.9,2.8-1.3c0.3-0.1,0.5-0.2,0.7-0.3c4.3-1.6,10.7,14.2,11,16.3
				C663.5,517.6,664.7,534.8,664.1,552.1z"/>
			<g>
				<path d="M283.7,558.1c5.1-15.6,13.5-29.2,25.1-40.8c-1.4,1.4-32.3-26.2-34.2-24.4c-11.7,11.6-20,25.1-25.1,40.8
					c-0.4,1.1,15.5,11.3,17,12.4C267.9,547.1,284,557.2,283.7,558.1L283.7,558.1z"/>
			</g>
			<g>
				<path d="M240.7,559.4c5.1-15.6,13.5-29.2,25.1-40.8c-1.4,1.4-32.3-26.2-34.2-24.4c-11.7,11.6-20,25.1-25.1,40.8
					c-0.4,1.1,15.5,11.3,17,12.4C224.9,548.4,241,558.5,240.7,559.4L240.7,559.4z"/>
			</g>
			<g>
				<path d="M960.4,683.2c-2.9-2.9-4.3-6.4-4.3-10.5c0-4.1,1.4-7.6,4.3-10.5c2.9-2.9,6.4-4.3,10.5-4.3s7.6,1.5,10.4,4.3
					c2.9,2.9,4.3,6.4,4.3,10.5c0,4.1-1.4,7.6-4.3,10.5c-2.9,2.9-6.4,4.3-10.4,4.3S963.3,686.1,960.4,683.2z M980.3,682.2
					c2.6-2.6,4-5.8,4-9.5c0-3.7-1.3-6.8-4-9.5c-2.6-2.6-5.8-3.9-9.5-3.9c-3.7,0-6.9,1.3-9.5,3.9c-2.6,2.6-3.9,5.8-3.9,9.5
					c0,3.7,1.3,6.8,3.9,9.5c2.6,2.6,5.8,3.9,9.5,3.9C974.5,686.2,977.7,684.8,980.3,682.2z M975.2,680c-0.7-0.6-1.3-1.5-1.8-2.6
					c-0.5-1.3-0.8-2.2-1-2.6c-0.4-1.1-1.1-1.6-2-1.7H967v7.4l-1.1,0.1V665h5.8c2.1,0,3.7,0.7,4.7,2.2c0.4,0.6,0.5,1.2,0.5,1.8
					c0,0.7-0.2,1.3-0.6,1.9c-0.4,0.6-0.8,1.1-1.4,1.4c-0.7,0.5-1.6,0.7-2.9,0.7c1.2,0.7,2.3,2.2,3.1,4.5c0.2,0.6,0.4,1.1,0.7,1.5
					c0.4,0.6,0.8,0.9,1.5,0.9c0.2,0,0.4,0,0.7-0.1l0.1,0.4c-0.1,0-0.1,0-0.2,0.1c-0.1,0-0.1,0.1-0.2,0.1c-0.1,0.1-0.3,0.1-0.7,0.2
					C976.4,680.7,975.7,680.5,975.2,680z M972.9,672.8c1.6-0.6,2.4-1.8,2.4-3.7c0-1.6-0.7-2.8-2-3.5c-0.2-0.1-0.6-0.2-1-0.2
					c-0.4,0-2.2,0-5.3,0v7.4l0.9,0.1h2.8C971.7,672.9,972.5,672.9,972.9,672.8z"/>
			</g>
			<path d="M562.9,639c-41.7,7.9-83.5,15.9-125.2,23.8c1.6,4.3,3.8,7.4,6.9,8.9c3.7,1.8,7.5,0.8,9.2,0.4c8.6-2.2,75.6-20.1,167.5-45
				C601.8,631.1,582.3,635.1,562.9,639z"/>
			<path d="M873.9,446.2c-41.3,9.9-82.6,19.7-124,29.6c1.8,4.3,4.1,7.2,7.3,8.6c3.7,1.6,7.5,0.5,9.2,0c8.5-2.6,74.5-23.6,165.2-52.8
				C912.3,436.4,893.1,441.3,873.9,446.2z"/>
		</g>
	</g>
</g>
</svg>
