<?xml version="1.0" encoding="utf-8"?>
<!-- Generator: Adobe Illustrator 28.4.1, SVG Export Plug-In . SVG Version: 6.00 Build 0)  -->
<svg version="1.1" id="Layer_1" xmlns="http://www.w3.org/2000/svg" xmlns:xlink="http://www.w3.org/1999/xlink" x="0px" y="0px"
	 viewBox="0 0 170 43" style="enable-background:new 0 0 170 43;" xml:space="preserve">
<g>
	<path d="M27.1,11.8l-7.2,17.7l0.5,1.2H18l-7.7-18.9v18.9h-2l0-20h4l7.5,18.2l7.4-18.2l2.3,0v15.9l0,4.1l-2.3,0V11.8z"/>
	<path d="M49.6,30.7l-1.2-2.7l-2-4.9h-8.7l-2.2,5.5l-0.8,2.1h-0.5l1-2.6l6.6-16.2l-0.5-1.2h4L52,26.8l1.6,3.7L52,30.7H49.6z
		 M42.1,12.4l-4.2,10.2h8.3L42.1,12.4z"/>
	<path d="M93.1,30.7L92,27.9L90,23h-8.7l-2.2,5.5l-0.8,2.1h-0.5l1-2.6l6.6-16.2l-0.5-1.2h4l6.6,16.2l1.6,3.7v0.1H93.1z M85.6,12.4
		l-4.2,10.2h8.3L85.6,12.4z"/>
	<path d="M100.7,28.2c-1-0.9-1.6-2.2-1.9-3.7h2.3c-0.1,0.3-0.1,0.6-0.1,0.9c0,0.7,0.2,1.4,0.6,2c0.7,0.9,1.5,1.6,2.7,2
		c1.1,0.4,2.3,0.7,3.5,0.7c0.8,0,1.6-0.1,2.4-0.3c0.8-0.2,1.6-0.5,2.2-1.1c0.7-0.6,1-1.6,1-2.5c0-0.8-0.3-1.5-0.9-2.1
		c-0.5-0.4-1.1-0.7-1.6-1c-2.8-1.1-6.1-1.1-8.8-2.4c-1.7-0.8-2.9-2.3-2.9-4.3c0-2.8,2.5-4.7,5-5.4c1.1-0.3,2.3-0.5,3.5-0.5
		c0.7,0,1.3,0.1,2,0.1c1.3,0.2,2.4,0.6,3.3,1.2c1,0.7,1.7,1.6,2.2,2.7l-0.9,1.1c-0.6-1.4-1.2-2.4-1.7-3c-1.2-1.2-2.8-1.8-4.8-1.8
		c-1.9,0-3.5,0.6-4.8,1.7c-0.8,0.7-1.1,1.5-1.1,2.5c0,1,0.4,1.8,1.1,2.4c0.8,0.5,1.7,0.9,2.8,1.2c0.9,0.2,2.1,0.5,3.6,0.8
		c3.2,0.5,5.3,1.6,6.2,3.3c0.3,0.6,0.5,1.3,0.5,2c0,0.5-0.1,0.9-0.2,1.4c-0.4,1.4-1.3,2.5-2.6,3.2c-1.5,0.8-3.3,1.2-5.4,1.2
		C104.8,30.7,102.5,29.8,100.7,28.2z"/>
	<path d="M119.7,30.7l0-20l12.4,0l0,0.5L122,11v9.3h9l0,2h-9v7.9l10.1,0v0.5H119.7z"/>
	<path d="M146.4,30.7c-2.6-0.1-5-1-6.9-2.7c-1.7-1.4-2.7-3.4-3.1-5.9c-0.1-0.4-0.1-0.9-0.1-1.3c0-0.4,0-0.8,0.1-1.2
		c0.4-2.8,1.5-4.9,3.4-6.3c2.1-1.7,4.5-2.5,7.3-2.5c2.7,0,5.2,0.8,7.3,2.5c2.1,1.7,3.2,4.1,3.3,7.4c-0.1,3.2-1.1,5.6-3.1,7.3
		c-2,1.7-4.3,2.5-6.9,2.7H146.4z M152.1,28.1c1.6-1.6,2.4-4,2.5-7.3c-0.1-3.2-0.9-5.6-2.4-7.2c-1.5-1.6-3.3-2.4-5.3-2.4
		c-2,0-3.8,0.8-5.3,2.4c-1.5,1.6-2.3,4-2.4,7.2c0.1,3.1,0.9,5.4,2.3,7c1.4,1.6,3.2,2.5,5.4,2.6C148.8,30.4,150.6,29.6,152.1,28.1z"
		/>
	<path d="M72.3,28.2c-1.2-1.9-2.3-3.4-3.4-4.6c-0.8-1-1.8-1.7-2.9-2.1l0.6,0c1.3-0.1,2.3-0.4,3-0.9c0.7-0.5,1.3-1.1,1.8-2
		c0.4-0.7,0.7-1.6,0.7-2.5c0-0.9-0.2-1.7-0.7-2.4c-1.3-1.9-3.3-2.9-5.9-2.9c-0.2,0-3.2,0-8.9,0l0,19.9v0.2H59v-9.3h1.2
		c1.1,0,0.7,0,2,0c0.4,0,0.9,0.2,1.4,0.5c0.5,0.4,0.9,0.8,1.3,1.3c0.9,1.1,1.8,2.5,2.8,4.1c0.7,1.2,1.3,2.2,2,3.2H74
		C73.5,29.9,72.9,29,72.3,28.2z M62.8,21.1h-3l-0.8,0v-9.9h3.9c0.2,0,0.4,0,0.6,0c1.1,0,1.9,0.1,2.3,0.3c1.2,0.6,1.9,1.4,2.2,2.4
		c0.3,1,0.4,1.7,0.4,2.3c0,0.8-0.2,1.5-0.4,2.3c-0.5,1.3-1.4,2.2-2.7,2.6C64.7,21,63.9,21.1,62.8,21.1z"/>
	<path d="M148.6,26.6c0.5,0,1.1,0.3,1.5,0.4c0.6,0.2,1.1,0.4,1.6,0.7c1.2,0.6,2.1,1.4,3.1,2.3c0.6,0.5,1.3,1,2,1.3
		c0.7,0.4,1.5,0.5,2.3,0.6c0.9,0,1.7,0,2.6,0c0,0.1,0,0.3,0,0.4c-0.1,0-2.9,0-3,0c-1.1,0-2.2,0.1-3.2-0.1c-1.3-0.3-2.5-0.9-3.6-1.7
		c-1-0.8-1.8-1.9-2.8-2.8c-0.5-0.5-1.1-0.9-1.8-1.2H148.6z"/>
</g>
</svg>
